<?xml version="1.0" standalone="no"?>
<!DOCTYPE svg PUBLIC "-//W3C//DTD SVG 20010904//EN"
 "http://www.w3.org/TR/2001/REC-SVG-20010904/DTD/svg10.dtd">
<svg version="1.0" xmlns="http://www.w3.org/2000/svg"
 width="900.000000pt" height="512.000000pt" viewBox="0 0 900.000000 512.000000"
 preserveAspectRatio="xMidYMid meet">

<g transform="translate(0.000000,512.000000) scale(0.100000,-0.100000)"
fill="#000000" stroke="none">
<path d="M3793 4726 c-346 -66 -570 -263 -658 -581 -11 -41 -19 -131 -25 -288
l-9 -228 -29 -29 c-74 -74 -75 -287 -2 -482 25 -66 102 -189 158 -251 23 -25
46 -64 57 -97 49 -155 168 -332 283 -425 78 -63 221 -132 312 -151 333 -70
700 186 825 576 11 33 34 72 57 97 135 148 209 332 209 519 1 121 -12 173 -50
211 l-28 29 -6 179 c-7 240 -37 353 -121 451 -21 24 -40 61 -47 90 -18 73 -66
159 -116 205 -58 53 -206 123 -330 156 -121 32 -362 41 -480 19z"/>
<path d="M3230 2438 c-317 -123 -654 -277 -760 -347 -83 -54 -206 -177 -263
-260 -136 -202 -237 -502 -254 -755 -7 -112 0 -130 70 -161 302 -133 884 -227
1582 -255 349 -14 1043 2 1227 28 l46 7 -54 74 c-193 263 -286 597 -255 913
23 239 107 453 252 644 28 37 49 67 47 69 -2 1 -43 18 -93 37 l-89 34 -59 -73
c-110 -137 -291 -256 -457 -300 -88 -23 -262 -23 -350 0 -188 51 -357 169
-495 348 l-20 26 -75 -29z"/>
</g>
</svg>
